<svg width="240" height="46" viewBox="0 0 240 46" fill="none" xmlns="http://www.w3.org/2000/svg">
<path d="M60.7992 18.127H54.9108V44.5669H48.2719V18.127H44.5195V12.7581H48.2719V10.5067C48.2719 6.85052 49.2341 4.19498 51.1584 2.54008C53.1212 0.846693 56.1808 0 60.3373 0V5.48427C58.3361 5.48427 56.9313 5.86913 56.1231 6.63885C55.3149 7.37009 54.9108 8.65937 54.9108 10.5067V12.7581H60.7992V18.127Z" fill="black"/>
<path d="M79.967 18.127H74.0787V44.5669H67.4398V18.127H63.6874V12.7581H67.4398V10.5067C67.4398 6.85052 68.402 4.19498 70.3263 2.54008C72.2891 0.846693 75.3487 0 79.5052 0V5.48427C77.5039 5.48427 76.0992 5.86913 75.291 6.63885C74.4828 7.37009 74.0787 8.65937 74.0787 10.5067V12.7581H79.967V18.127Z" fill="black"/>
<path d="M114.953 27.8832C114.953 29.0762 114.876 30.1539 114.722 31.116H90.4178C90.6103 33.6561 91.5532 35.6959 93.2466 37.2353C94.9399 38.7747 97.0182 39.5445 99.4813 39.5445C103.022 39.5445 105.524 38.0628 106.986 35.0993H114.087C113.125 38.0243 111.374 40.4296 108.833 42.3155C106.332 44.1628 103.214 45.0865 99.4813 45.0865C96.4409 45.0865 93.7084 44.413 91.2838 43.0659C88.8976 41.6804 87.0118 39.7561 85.6263 37.293C84.2793 34.7914 83.6058 31.905 83.6058 28.6337C83.6058 25.3623 84.2601 22.4951 85.5686 20.032C86.9156 17.5304 88.7822 15.6061 91.1683 14.2591C93.5929 12.9121 96.3639 12.2386 99.4813 12.2386C102.483 12.2386 105.158 12.8928 107.506 14.2014C109.853 15.5099 111.681 17.3572 112.99 19.7434C114.298 22.091 114.953 24.8043 114.953 27.8832ZM108.083 25.8049C108.044 23.3803 107.179 21.4368 105.485 19.9743C103.792 18.5118 101.694 17.7806 99.1927 17.7806C96.922 17.7806 94.9784 18.5118 93.362 19.9743C91.7456 21.3983 90.7834 23.3418 90.4756 25.8049H108.083Z" fill="black"/>
<path d="M128.01 17.3765C128.972 15.7601 130.243 14.5093 131.82 13.6241C133.437 12.7004 135.342 12.2386 137.536 12.2386V19.0506H135.861C133.283 19.0506 131.32 19.7049 129.973 21.0134C128.665 22.3219 128.01 24.5926 128.01 27.8254V44.5669H121.429V12.7581H128.01V17.3765Z" fill="black"/>
<path d="M10.1603 42.3732C7.04296 40.6028 4.5606 38.159 2.71327 35.0416C0.904423 31.8857 0 28.345 0 24.4194C0 20.4938 0.904423 16.9724 2.71327 13.855C4.5606 10.7376 7.04296 8.313 10.1603 6.58112C12.3067 5.37706 14.5866 4.58245 17 4.1973V10.08C15.7141 10.3766 14.5118 10.8459 13.3932 11.4881C11.3149 12.6812 9.67925 14.3938 8.48619 16.626C7.3316 18.8582 6.75431 21.456 6.75431 24.4194C6.75431 27.3829 7.3316 29.9999 8.48619 32.2706C9.67925 34.5028 11.3149 36.2347 13.3932 37.4662C14.5118 38.1084 15.7141 38.5778 17 38.8743V44.7052C14.5866 44.3284 12.3067 43.5511 10.1603 42.3732Z" fill="black"/>
<path d="M30.8274 6.58112C33.9832 8.313 36.4656 10.7376 38.2744 13.855C40.0833 16.9724 40.9877 20.4938 40.9877 24.4194C40.9877 28.345 40.0833 31.8857 38.2744 35.0416C36.4656 38.159 33.9832 40.6028 30.8274 42.3732C28.9976 43.3897 27.0552 44.1079 25 44.5278V38.5997C25.9098 38.3148 26.7746 37.9369 27.5945 37.4662C29.6728 36.2347 31.2892 34.5028 32.4438 32.2706C33.6369 29.9999 34.2334 27.3829 34.2334 24.4194C34.2334 21.456 33.6369 18.8582 32.4438 16.626C31.2892 14.3938 29.6728 12.6812 27.5945 11.4881C26.7746 11.0174 25.9098 10.6396 25 10.3546V4.37863C27.0552 4.80784 28.9976 5.542 30.8274 6.58112Z" fill="black"/>
<path d="M139.171 28.5183C139.171 25.3239 139.825 22.4952 141.134 20.0321C142.481 17.569 144.29 15.6639 146.56 14.3169C148.869 12.9314 151.409 12.2387 154.18 12.2387C156.682 12.2387 158.857 12.739 160.704 13.7396C162.59 14.7018 164.091 15.9141 165.207 17.3766V12.7582H171.846V44.567H165.207V39.8332C164.091 41.3341 162.57 42.5849 160.646 43.5856C158.722 44.5862 156.528 45.0865 154.065 45.0865C151.332 45.0865 148.831 44.3938 146.56 43.0083C144.29 41.5843 142.481 39.6215 141.134 37.1199C139.825 34.5798 139.171 31.7126 139.171 28.5183ZM165.207 28.6337C165.207 26.44 164.745 24.535 163.821 22.9186C162.936 21.3021 161.762 20.0706 160.3 19.2239C158.837 18.3772 157.259 17.9538 155.566 17.9538C153.873 17.9538 152.295 18.3772 150.832 19.2239C149.37 20.0321 148.177 21.2444 147.253 22.8608C146.368 24.4388 145.925 26.3246 145.925 28.5183C145.925 30.712 146.368 32.6363 147.253 34.2912C148.177 35.9461 149.37 37.2161 150.832 38.1013C152.333 38.948 153.911 39.3714 155.566 39.3714C157.259 39.3714 158.837 38.948 160.3 38.1013C161.762 37.2546 162.936 36.0231 163.821 34.4067C164.745 32.7518 165.207 30.8274 165.207 28.6337Z" fill="#E34250"/>
<path d="M173.786 28.5183C173.786 25.3239 174.44 22.4952 175.749 20.0321C177.096 17.569 178.904 15.6639 181.175 14.3169C183.484 12.9314 186.044 12.2387 188.853 12.2387C190.931 12.2387 192.971 12.7005 194.972 13.6242C197.012 14.5093 198.629 15.7024 199.822 17.2034V1.84741H206.461V44.567H199.822V39.7755C198.744 41.3149 197.243 42.5849 195.319 43.5856C193.433 44.5862 191.259 45.0865 188.795 45.0865C186.024 45.0865 183.484 44.3938 181.175 43.0083C178.904 41.5843 177.096 39.6215 175.749 37.1199C174.44 34.5798 173.786 31.7126 173.786 28.5183ZM199.822 28.6337C199.822 26.44 199.36 24.535 198.436 22.9186C197.551 21.3021 196.377 20.0706 194.915 19.2239C193.452 18.3772 191.874 17.9538 190.181 17.9538C188.488 17.9538 186.91 18.3772 185.447 19.2239C183.985 20.0321 182.792 21.2444 181.868 22.8608C180.983 24.4388 180.54 26.3246 180.54 28.5183C180.54 30.712 180.983 32.6363 181.868 34.2912C182.792 35.9461 183.985 37.2161 185.447 38.1013C186.948 38.948 188.526 39.3714 190.181 39.3714C191.874 39.3714 193.452 38.948 194.915 38.1013C196.377 37.2546 197.551 36.0231 198.436 34.4067C199.36 32.7518 199.822 30.8274 199.822 28.6337Z" fill="#E34250"/>
<path d="M223.49 45.0865C220.488 45.0865 217.775 44.413 215.35 43.066C212.925 41.6805 211.02 39.7562 209.635 37.2931C208.249 34.7915 207.556 31.9051 207.556 28.6337C207.556 25.4009 208.268 22.5337 209.692 20.0321C211.116 17.5305 213.06 15.6062 215.523 14.2592C217.986 12.9122 220.738 12.2387 223.778 12.2387C226.819 12.2387 229.571 12.9122 232.034 14.2592C234.497 15.6062 236.44 17.5305 237.864 20.0321C239.288 22.5337 240 25.4009 240 28.6337C240 31.8666 239.269 34.7338 237.807 37.2354C236.344 39.737 234.343 41.6805 231.803 43.066C229.301 44.413 226.53 45.0865 223.49 45.0865ZM223.49 39.3714C225.183 39.3714 226.761 38.9673 228.224 38.159C229.724 37.3508 230.937 36.1385 231.86 34.5221C232.784 32.9057 233.246 30.9429 233.246 28.6337C233.246 26.3246 232.803 24.381 231.918 22.8031C231.033 21.1867 229.859 19.9744 228.397 19.1662C226.934 18.3579 225.356 17.9538 223.663 17.9538C221.97 17.9538 220.392 18.3579 218.929 19.1662C217.505 19.9744 216.37 21.1867 215.523 22.8031C214.676 24.381 214.253 26.3246 214.253 28.6337C214.253 32.059 215.119 34.7145 216.851 36.6004C218.621 38.4477 220.834 39.3714 223.49 39.3714Z" fill="#E34250"/>
</svg>
