<svg width="242" height="49" viewBox="0 0 242 49" fill="none" xmlns="http://www.w3.org/2000/svg">
<path d="M63.5492 20.877H62.7992H57.6608V46.5669V47.3169H56.9108H50.2719H49.5219V46.5669V20.877H46.5195H45.7695V20.127V14.7581V14.0081H46.5195H49.5219V12.5067C49.5219 8.73156 50.5164 5.82353 52.6685 3.97221L63.5492 20.877ZM63.5492 20.877V20.127V14.7581V14.0081H62.7992H57.6608M63.5492 20.877L57.6608 14.0081M57.6608 14.0081V12.5067C57.6608 10.7309 58.0556 9.71132 58.6263 9.195L58.6334 9.18857L58.6404 9.18195C59.2335 8.61701 60.3899 8.23427 62.3373 8.23427H63.0873V7.48427V2V1.25H62.3373C58.1034 1.25 54.8292 2.10831 52.6689 3.97183L57.6608 14.0081ZM11.79 45.0254L11.7899 45.0254L11.7995 45.0307C14.0219 46.2503 16.3848 47.056 18.8843 47.4462L19.75 47.5814V46.7052V40.8743V40.2775L19.1685 40.1435C17.9545 39.8635 16.823 39.4216 15.771 38.8183C13.8207 37.6615 12.2817 36.0362 11.1513 33.9239C10.0606 31.776 9.50431 29.281 9.50431 26.4194C9.50431 23.5565 10.0611 21.0822 11.15 18.975C12.2805 16.8618 13.8186 15.2568 15.7666 14.1385C16.8198 13.5339 17.9528 13.0912 19.1685 12.8109L19.75 12.6768V12.08V6.1973V5.31812L18.8818 5.45667C16.3809 5.85579 14.0173 6.67966 11.7947 7.92629C8.55979 9.72377 5.98174 12.2433 4.06805 15.4726L4.06802 15.4726L4.06457 15.4786C2.18353 18.7204 1.25 22.3738 1.25 26.4194C1.25 30.4652 2.18354 34.1362 4.06258 37.4146L4.06251 37.4146L4.06805 37.4239C5.9812 40.6524 8.55777 43.1898 11.79 45.0254ZM40.9231 37.418L40.9251 37.4146C42.8042 34.1362 43.7377 30.4652 43.7377 26.4194C43.7377 22.3738 42.8042 18.7204 40.9231 15.4786C39.0467 12.2448 36.4665 9.72378 33.193 7.92627C31.2971 6.85023 29.2831 6.08925 27.1533 5.64447L26.25 5.45582V6.37863V12.3546V12.9056L26.7758 13.0703C27.6341 13.3391 28.4488 13.6952 29.2211 14.1385C31.1682 15.2563 32.6858 16.8598 33.7776 18.9706L33.7776 18.9706L33.7823 18.9795C34.9081 21.0857 35.4834 23.5582 35.4834 26.4194C35.4834 29.2803 34.9082 31.7743 33.7798 33.9217L33.7776 33.926C32.6857 36.0371 31.1668 37.6616 29.2166 38.8184C28.4457 39.2605 27.6324 39.6157 26.7758 39.884L26.25 40.0487V40.5997V46.5278V47.4465L27.1501 47.2626C29.2801 46.8275 31.2948 46.0826 33.1916 45.0288L33.1943 45.0273C36.4668 43.1915 39.0466 40.652 40.9231 37.418ZM81.967 20.877H82.717V20.127V14.7581V14.0081H81.967H76.8287V12.5067C76.8287 10.7309 77.2235 9.71132 77.7942 9.195L77.8013 9.18857L77.8082 9.18195C78.4014 8.61701 79.5578 8.23427 81.5052 8.23427H82.2552V7.48427V2V1.25H81.5052C77.2716 1.25 73.9976 2.10819 71.8372 3.97144C69.6846 5.82272 68.6898 8.73104 68.6898 12.5067V14.0081H65.6874H64.9374V14.7581V20.127V20.877H65.6874H68.6898V46.5669V47.3169H69.4398H76.0787H76.8287V46.5669V20.877H81.967ZM116.722 33.866H117.361L117.462 33.2345C117.624 32.2256 117.703 31.1075 117.703 29.8832C117.703 26.6961 117.025 23.8542 115.646 21.38C114.271 18.8731 112.342 16.9239 109.871 15.5463C107.399 14.1685 104.596 13.4886 101.481 13.4886C98.2525 13.4886 95.3534 14.1872 92.8041 15.6035L92.7996 15.606C90.2854 17.0253 88.3198 19.0549 86.9082 21.6764L86.9062 21.6801C85.531 24.2689 84.8558 27.2609 84.8558 30.6337C84.8558 34.0102 85.5517 37.0222 86.966 39.6486L86.9658 39.6487L86.9726 39.6607C88.4221 42.2376 90.4024 44.2601 92.9072 45.7145L92.9133 45.7181L92.9195 45.7216C95.4661 47.1363 98.326 47.8365 101.481 47.8365C105.342 47.8365 108.624 46.8793 111.279 44.9188L111.281 44.9176C113.941 42.9422 115.787 40.4099 116.799 37.3337L117.123 36.3493H116.087H108.986H108.52L108.314 36.7674C107.638 38.1371 106.74 39.1309 105.631 39.7879C104.519 40.4467 103.146 40.7945 101.481 40.7945C99.1893 40.7945 97.2953 40.0842 95.7511 38.6803C94.3945 37.4471 93.5569 35.8566 93.2564 33.866H116.722ZM95.8578 22.5371L95.8652 22.5304C97.3375 21.1983 99.0994 20.5306 101.193 20.5306C103.537 20.5306 105.454 21.2111 106.995 22.5419C108.335 23.6989 109.104 25.1864 109.29 27.0549H93.3566C93.7408 25.1523 94.5822 23.6608 95.8578 22.5371L95.8578 22.5371ZM130.76 17.1049V14.7581V14.0081H130.01H123.429H122.679V14.7581V46.5669V47.3169H123.429H130.01H130.76V46.5669V29.8254C130.76 26.6573 131.408 24.6418 132.5 23.5472C133.662 22.4214 135.407 21.8006 137.861 21.8006H139.536H140.286V21.0506V14.2386V13.4886H139.536C137.236 13.4886 135.199 13.9732 133.451 14.9711C132.434 15.542 131.537 16.2543 130.76 17.1049Z" fill="white" stroke="white" stroke-width="1.5"/>
<path d="M141.17 30.5182C141.17 27.3238 141.825 24.4951 143.133 22.032C144.48 19.5689 146.289 17.6638 148.56 16.3168C150.869 14.9313 153.409 14.2385 156.18 14.2385C158.682 14.2385 160.856 14.7389 162.703 15.7395C164.589 16.7016 166.09 17.914 167.206 19.3764V14.7581H173.845V46.5669H167.206V41.8331C166.09 43.334 164.57 44.5848 162.646 45.5855C160.721 46.5861 158.528 47.0864 156.065 47.0864C153.332 47.0864 150.83 46.3937 148.56 45.0082C146.289 43.5842 144.48 41.6214 143.133 39.1198C141.825 36.5797 141.17 33.7125 141.17 30.5182ZM167.206 30.6336C167.206 28.4399 166.744 26.5348 165.821 24.9184C164.936 23.302 163.762 22.0705 162.299 21.2238C160.837 20.3771 159.259 19.9537 157.565 19.9537C155.872 19.9537 154.294 20.3771 152.832 21.2238C151.369 22.032 150.176 23.2443 149.252 24.8607C148.367 26.4386 147.925 28.3244 147.925 30.5182C147.925 32.7119 148.367 34.6362 149.252 36.2911C150.176 37.946 151.369 39.216 152.832 40.1012C154.333 40.9479 155.911 41.3712 157.565 41.3712C159.259 41.3712 160.837 40.9479 162.299 40.1012C163.762 39.2545 164.936 38.0229 165.821 36.4065C166.744 34.7516 167.206 32.8273 167.206 30.6336Z" fill="#E34250"/>
<path d="M175.785 30.5182C175.785 27.3238 176.44 24.4951 177.748 22.032C179.095 19.5689 180.904 17.6638 183.175 16.3168C185.484 14.9313 188.043 14.2385 190.853 14.2385C192.931 14.2385 194.971 14.7004 196.972 15.624C199.012 16.5092 200.628 17.7023 201.821 19.2032V3.84729H208.46V46.5669H201.821V41.7753C200.744 43.3148 199.243 44.5848 197.318 45.5855C195.433 46.5861 193.258 47.0864 190.795 47.0864C188.024 47.0864 185.484 46.3937 183.175 45.0082C180.904 43.5842 179.095 41.6214 177.748 39.1198C176.44 36.5797 175.785 33.7125 175.785 30.5182ZM201.821 30.6336C201.821 28.4399 201.359 26.5348 200.436 24.9184C199.551 23.302 198.377 22.0705 196.914 21.2238C195.452 20.3771 193.874 19.9537 192.18 19.9537C190.487 19.9537 188.909 20.3771 187.447 21.2238C185.984 22.032 184.791 23.2443 183.867 24.8607C182.982 26.4386 182.54 28.3244 182.54 30.5182C182.54 32.7119 182.982 34.6362 183.867 36.2911C184.791 37.946 185.984 39.216 187.447 40.1012C188.948 40.9479 190.526 41.3712 192.18 41.3712C193.874 41.3712 195.452 40.9479 196.914 40.1012C198.377 39.2545 199.551 38.0229 200.436 36.4065C201.359 34.7516 201.821 32.8273 201.821 30.6336Z" fill="#E34250"/>
<path d="M225.489 47.0864C222.487 47.0864 219.774 46.4129 217.349 45.0659C214.925 43.6804 213.02 41.7561 211.634 39.293C210.249 36.7914 209.556 33.9049 209.556 30.6336C209.556 27.4008 210.268 24.5336 211.692 22.032C213.116 19.5304 215.06 17.6061 217.523 16.2591C219.986 14.912 222.737 14.2385 225.778 14.2385C228.818 14.2385 231.57 14.912 234.033 16.2591C236.496 17.6061 238.44 19.5304 239.864 22.032C241.288 24.5336 242 27.4008 242 30.6336C242 33.8664 241.269 36.7337 239.806 39.2353C238.344 41.7369 236.342 43.6804 233.802 45.0659C231.301 46.4129 228.53 47.0864 225.489 47.0864ZM225.489 41.3712C227.183 41.3712 228.761 40.9671 230.223 40.1589C231.724 39.3507 232.936 38.1384 233.86 36.522C234.784 34.9056 235.245 32.9428 235.245 30.6336C235.245 28.3244 234.803 26.3809 233.918 24.803C233.033 23.1866 231.859 21.9742 230.396 21.166C228.934 20.3578 227.356 19.9537 225.662 19.9537C223.969 19.9537 222.391 20.3578 220.929 21.166C219.505 21.9742 218.369 23.1866 217.523 24.803C216.676 26.3809 216.253 28.3244 216.253 30.6336C216.253 34.0589 217.119 36.7144 218.85 38.6002C220.621 40.4476 222.834 41.3712 225.489 41.3712Z" fill="#E34250"/>
</svg>
